<svg width="182" height="46" viewBox="0 0 182 46" fill="none" xmlns="http://www.w3.org/2000/svg">
<path d="M155.632 45.3043C153.649 45.3043 152.131 44.7981 151.076 43.7857C150.064 42.7311 149.558 41.2337 149.558 39.2933V6.70729C149.558 4.7669 150.064 3.29051 151.076 2.27813C152.131 1.22357 153.649 0.696289 155.632 0.696289H177.082C178.6 0.696289 179.739 1.07593 180.498 1.83522C181.258 2.5945 181.637 3.69124 181.637 5.12545C181.637 6.60184 181.258 7.74077 180.498 8.54223C179.739 9.30152 178.6 9.68116 177.082 9.68116H160.694V18.1598H175.69C177.166 18.1598 178.284 18.5395 179.043 19.2988C179.845 20.0581 180.245 21.1759 180.245 22.6523C180.245 24.1287 179.845 25.2465 179.043 26.0058C178.284 26.7651 177.166 27.1447 175.69 27.1447H160.694V36.3194H177.082C178.6 36.3194 179.739 36.7201 180.498 37.5216C181.258 38.2809 181.637 39.3776 181.637 40.8118C181.637 42.2882 181.258 43.4061 180.498 44.1653C179.739 44.9246 178.6 45.3043 177.082 45.3043H155.632Z" fill="#333232"/>
<path d="M99.0173 45.8731C97.33 45.8731 96.0224 45.4091 95.0944 44.4811C94.2085 43.5531 93.7656 42.2454 93.7656 40.5581V5.44121C93.7656 3.71174 94.2507 2.40408 95.2209 1.51824C96.1911 0.590228 97.562 0.126221 99.3337 0.126221C100.81 0.126221 101.97 0.421498 102.814 1.01205C103.7 1.56043 104.501 2.48844 105.218 3.7961L118.822 28.2198H116.607L130.148 3.7961C130.907 2.48844 131.709 1.56043 132.552 1.01205C133.438 0.421498 134.619 0.126221 136.096 0.126221C137.783 0.126221 139.07 0.590228 139.955 1.51824C140.883 2.40408 141.347 3.71174 141.347 5.44121V40.5581C141.347 42.2454 140.905 43.5531 140.019 44.4811C139.133 45.4091 137.825 45.8731 136.096 45.8731C134.408 45.8731 133.101 45.4091 132.173 44.4811C131.287 43.5531 130.844 42.2454 130.844 40.5581V18.792H132.173L121.986 36.5086C121.395 37.4366 120.762 38.1326 120.087 38.5967C119.455 39.0607 118.59 39.2927 117.493 39.2927C116.439 39.2927 115.574 39.0607 114.899 38.5967C114.224 38.1326 113.612 37.4366 113.064 36.5086L102.814 18.7287H104.269V40.5581C104.269 42.2454 103.826 43.5531 102.94 44.4811C102.054 45.4091 100.747 45.8731 99.0173 45.8731Z" fill="#333232"/>
<path d="M72.6019 46C67.6665 46 63.4272 45.0509 59.8839 43.1527C56.3405 41.2545 53.6198 38.5759 51.7215 35.1169C49.8655 31.658 48.9375 27.6084 48.9375 22.9684C48.9375 19.5094 49.4648 16.3668 50.5193 13.5406C51.6161 10.7144 53.1768 8.28886 55.2016 6.2641C57.2685 4.23934 59.7573 2.69968 62.6679 1.64511C65.6207 0.548372 68.932 0 72.6019 0C74.5423 0 76.5459 0.232003 78.6129 0.69601C80.722 1.11783 82.578 1.77166 84.181 2.6575C85.3621 3.29023 86.1846 4.0917 86.6486 5.0619C87.1127 6.03209 87.2603 7.02338 87.0916 8.03576C86.965 9.04814 86.6065 9.95507 86.0159 10.7565C85.4253 11.558 84.6661 12.1064 83.7381 12.4016C82.81 12.6547 81.7977 12.5071 80.7009 11.9587C79.4354 11.3682 78.17 10.9253 76.9045 10.63C75.6812 10.2925 74.3946 10.1238 73.0448 10.1238C70.4295 10.1238 68.236 10.63 66.4643 11.6424C64.7348 12.6126 63.4272 14.0468 62.5414 15.945C61.6555 17.8432 61.2126 20.1843 61.2126 22.9684C61.2126 25.7524 61.6555 28.1146 62.5414 30.055C63.4272 31.9532 64.7348 33.4085 66.4643 34.4209C68.236 35.3911 70.4295 35.8762 73.0448 35.8762C74.1415 35.8762 75.3226 35.7497 76.5881 35.4966C77.8536 35.2013 79.098 34.7584 80.3213 34.1678C81.5868 33.6194 82.7046 33.4718 83.6748 33.7249C84.6872 33.978 85.4886 34.4842 86.0792 35.2435C86.7119 36.0028 87.1126 36.8886 87.2814 37.901C87.4501 38.8712 87.3025 39.8414 86.8385 40.8116C86.4166 41.7817 85.6574 42.5621 84.5606 43.1527C83.0842 44.0385 81.2493 44.7345 79.0558 45.2407C76.9045 45.7469 74.7532 46 72.6019 46Z" fill="#333232"/>
<path d="M5.0186 45.8731C3.71095 45.8731 2.6142 45.5779 1.72837 44.9873C0.842539 44.3546 0.294167 43.5109 0.0832551 42.4564C-0.127657 41.3596 0.0621628 40.1363 0.652718 38.7865L16.4079 4.87175C17.1672 3.22663 18.0952 2.02443 19.1919 1.26515C20.3308 0.505863 21.6174 0.126221 23.0516 0.126221C24.4858 0.126221 25.7302 0.505863 26.7848 1.26515C27.8815 2.02443 28.8306 3.22663 29.6321 4.87175L45.3872 38.7865C46.0622 40.1363 46.2942 41.3596 46.0833 42.4564C45.9145 43.5531 45.3872 44.3967 44.5014 44.9873C43.6578 45.5779 42.6032 45.8731 41.3377 45.8731C39.6504 45.8731 38.3428 45.4935 37.4148 44.7342C36.5289 43.9749 35.7275 42.7516 35.0104 41.0643L31.5936 33.0286L36.0227 36.2555H9.95396L14.4464 33.0286L11.0296 41.0643C10.2703 42.7516 9.48995 43.9749 8.68848 44.7342C7.88701 45.4935 6.66372 45.8731 5.0186 45.8731ZM22.9251 12.8442L15.5853 30.3711L13.8137 27.3339H32.2263L30.4546 30.3711L23.0516 12.8442H22.9251Z" fill="#333232"/>
</svg>
