<svg width="62" height="43" viewBox="0 0 62 43" fill="none" xmlns="http://www.w3.org/2000/svg">
<path d="M55.4635 23.8184L55.2325 23.9228L55.1806 24.171C53.444 32.488 43.7465 39.133 31.7051 39.3511C19.7072 39.5684 9.77699 33.3249 7.65914 25.1202L7.59342 24.8657L7.34657 24.775C6.24781 24.3715 5.38308 24.0523 4.77732 23.6367C4.21073 23.248 3.91732 22.808 3.90379 22.1352C3.89041 21.4692 4.18256 20.9993 4.75165 20.5765C5.35058 20.1315 6.20391 19.7796 7.23161 19.3752L7.48011 19.2774L7.53648 19.0163C9.32317 10.741 18.9952 4.14259 30.9931 3.92528C43.0344 3.70718 52.9917 9.99611 55.0615 18.244L55.1247 18.4962L55.3673 18.5897C56.9966 19.2179 57.9373 20.0094 57.9603 21.1561C57.9723 21.7512 57.7629 22.2148 57.3575 22.6297C56.9352 23.0619 56.2985 23.4412 55.4635 23.8184ZM31.7634 42.249C44.1468 42.0247 55.0648 35.4255 57.8107 25.991C59.5482 24.6315 61.0062 23.4082 60.9598 21.1018C60.9137 18.8078 59.3888 17.4694 57.6116 16.3158C54.4819 6.99573 43.3118 0.803131 30.9348 1.02731C18.7151 1.24864 7.92918 7.67463 5.00299 16.906C3.04223 17.9331 0.850463 19.5101 0.90432 22.1895C0.958316 24.8758 3.07997 26.2571 5.21051 27.3159C8.50328 36.4374 19.5414 42.4704 31.7634 42.249Z" fill="#156319" stroke="#156319"/>
<path fill-rule="evenodd" clip-rule="evenodd" d="M55.6704 24.2742C53.8684 32.9042 43.8902 39.6306 31.7155 39.8511C19.5842 40.0708 9.37253 33.7566 7.17529 25.2444C5.12305 25.2606 3.43907 23.8806 3.40417 22.1444C3.36927 20.4081 4.99659 18.9681 7.04801 18.91C8.90167 10.3245 18.8521 3.64521 30.9833 3.42549C43.1579 3.20497 53.3991 9.56507 55.5467 18.1234C57.1912 18.4345 58.4307 19.6601 58.4605 21.1472C58.4904 22.6341 57.3011 23.9038 55.6704 24.2742Z" fill="#FFD12F"/>
<path d="M14.5956 22.108C14.3476 22.108 14.1396 22.052 13.9716 21.94C13.8036 21.82 13.6996 21.66 13.6596 21.46C13.6196 21.252 13.6556 21.02 13.7676 20.764L16.7556 14.332C16.8996 14.02 17.0756 13.792 17.2836 13.648C17.4996 13.504 17.7436 13.432 18.0156 13.432C18.2876 13.432 18.5236 13.504 18.7236 13.648C18.9316 13.792 19.1116 14.02 19.2636 14.332L22.2516 20.764C22.3796 21.02 22.4236 21.252 22.3836 21.46C22.3516 21.668 22.2516 21.828 22.0836 21.94C21.9236 22.052 21.7236 22.108 21.4836 22.108C21.1636 22.108 20.9156 22.036 20.7396 21.892C20.5716 21.748 20.4196 21.516 20.2836 21.196L19.6356 19.672L20.4756 20.284H15.5316L16.3836 19.672L15.7356 21.196C15.5916 21.516 15.4436 21.748 15.2916 21.892C15.1396 22.036 14.9076 22.108 14.5956 22.108ZM17.9916 15.844L16.5996 19.168L16.2636 18.592H19.7556L19.4196 19.168L18.0156 15.844H17.9916ZM27.413 22.132C26.477 22.132 25.673 21.952 25.001 21.592C24.329 21.232 23.813 20.724 23.453 20.068C23.101 19.412 22.925 18.644 22.925 17.764C22.925 17.108 23.025 16.512 23.225 15.976C23.433 15.44 23.729 14.98 24.113 14.596C24.505 14.212 24.977 13.92 25.529 13.72C26.089 13.512 26.717 13.408 27.413 13.408C27.781 13.408 28.161 13.452 28.553 13.54C28.953 13.62 29.305 13.744 29.609 13.912C29.833 14.032 29.989 14.184 30.077 14.368C30.165 14.552 30.193 14.74 30.161 14.932C30.137 15.124 30.069 15.296 29.957 15.448C29.845 15.6 29.701 15.704 29.525 15.76C29.349 15.808 29.157 15.78 28.949 15.676C28.709 15.564 28.469 15.48 28.229 15.424C27.997 15.36 27.753 15.328 27.497 15.328C27.001 15.328 26.585 15.424 26.249 15.616C25.921 15.8 25.673 16.072 25.505 16.432C25.337 16.792 25.253 17.236 25.253 17.764C25.253 18.292 25.337 18.74 25.505 19.108C25.673 19.468 25.921 19.744 26.249 19.936C26.585 20.12 27.001 20.212 27.497 20.212C27.705 20.212 27.929 20.188 28.169 20.14C28.409 20.084 28.645 20 28.877 19.888C29.117 19.784 29.329 19.756 29.513 19.804C29.705 19.852 29.857 19.948 29.969 20.092C30.089 20.236 30.165 20.404 30.197 20.596C30.229 20.78 30.201 20.964 30.113 21.148C30.033 21.332 29.889 21.48 29.681 21.592C29.401 21.76 29.053 21.892 28.637 21.988C28.229 22.084 27.821 22.132 27.413 22.132ZM32.4228 22.108C32.1028 22.108 31.8548 22.02 31.6788 21.844C31.5108 21.668 31.4268 21.42 31.4268 21.1V14.44C31.4268 14.112 31.5188 13.864 31.7028 13.696C31.8868 13.52 32.1468 13.432 32.4828 13.432C32.7628 13.432 32.9828 13.488 33.1428 13.6C33.3108 13.704 33.4628 13.88 33.5988 14.128L36.1788 18.76H35.7588L38.3268 14.128C38.4708 13.88 38.6228 13.704 38.7828 13.6C38.9508 13.488 39.1748 13.432 39.4548 13.432C39.7748 13.432 40.0188 13.52 40.1868 13.696C40.3628 13.864 40.4508 14.112 40.4508 14.44V21.1C40.4508 21.42 40.3668 21.668 40.1988 21.844C40.0308 22.02 39.7828 22.108 39.4548 22.108C39.1348 22.108 38.8868 22.02 38.7108 21.844C38.5428 21.668 38.4588 21.42 38.4588 21.1V16.972H38.7108L36.7788 20.332C36.6668 20.508 36.5468 20.64 36.4188 20.728C36.2988 20.816 36.1348 20.86 35.9268 20.86C35.7268 20.86 35.5628 20.816 35.4348 20.728C35.3068 20.64 35.1908 20.508 35.0868 20.332L33.1428 16.96H33.4188V21.1C33.4188 21.42 33.3348 21.668 33.1668 21.844C32.9988 22.02 32.7508 22.108 32.4228 22.108ZM43.1602 22C42.7842 22 42.4962 21.904 42.2962 21.712C42.1042 21.512 42.0082 21.228 42.0082 20.86V14.68C42.0082 14.312 42.1042 14.032 42.2962 13.84C42.4962 13.64 42.7842 13.54 43.1602 13.54H47.2282C47.5162 13.54 47.7322 13.612 47.8762 13.756C48.0202 13.9 48.0922 14.108 48.0922 14.38C48.0922 14.66 48.0202 14.876 47.8762 15.028C47.7322 15.172 47.5162 15.244 47.2282 15.244H44.1202V16.852H46.9642C47.2442 16.852 47.4562 16.924 47.6002 17.068C47.7522 17.212 47.8282 17.424 47.8282 17.704C47.8282 17.984 47.7522 18.196 47.6002 18.34C47.4562 18.484 47.2442 18.556 46.9642 18.556H44.1202V20.296H47.2282C47.5162 20.296 47.7322 20.372 47.8762 20.524C48.0202 20.668 48.0922 20.876 48.0922 21.148C48.0922 21.428 48.0202 21.64 47.8762 21.784C47.7322 21.928 47.5162 22 47.2282 22H43.1602Z" fill="#156319"/>
<path d="M12.7772 29.048C12.6532 29.048 12.5552 29.014 12.4832 28.946C12.4152 28.874 12.3812 28.772 12.3812 28.64V25.178C12.3812 25.046 12.4152 24.946 12.4832 24.878C12.5552 24.806 12.6572 24.77 12.7892 24.77H14.8832C14.9872 24.77 15.0652 24.796 15.1172 24.848C15.1692 24.9 15.1952 24.974 15.1952 25.07C15.1952 25.17 15.1692 25.248 15.1172 25.304C15.0652 25.356 14.9872 25.382 14.8832 25.382H13.1492V26.576H14.7572C14.8572 26.576 14.9332 26.602 14.9852 26.654C15.0412 26.706 15.0692 26.78 15.0692 26.876C15.0692 26.976 15.0412 27.054 14.9852 27.11C14.9332 27.162 14.8572 27.188 14.7572 27.188H13.1492V28.64C13.1492 28.912 13.0252 29.048 12.7772 29.048ZM15.8838 29.048C15.7598 29.048 15.6638 29.016 15.5958 28.952C15.5318 28.884 15.4998 28.788 15.4998 28.664V26.396C15.4998 26.272 15.5318 26.178 15.5958 26.114C15.6598 26.05 15.7498 26.018 15.8658 26.018C15.9818 26.018 16.0718 26.05 16.1358 26.114C16.1998 26.178 16.2318 26.272 16.2318 26.396V26.774H16.1718C16.2278 26.534 16.3378 26.352 16.5018 26.228C16.6658 26.104 16.8838 26.03 17.1558 26.006C17.2398 25.998 17.3058 26.02 17.3538 26.072C17.4058 26.12 17.4358 26.196 17.4438 26.3C17.4518 26.4 17.4278 26.482 17.3718 26.546C17.3198 26.606 17.2398 26.642 17.1318 26.654L16.9998 26.666C16.7558 26.69 16.5718 26.766 16.4478 26.894C16.3238 27.018 16.2618 27.194 16.2618 27.422V28.664C16.2618 28.788 16.2298 28.884 16.1658 28.952C16.1018 29.016 16.0078 29.048 15.8838 29.048ZM19.1285 29.06C18.7965 29.06 18.5105 28.998 18.2705 28.874C18.0305 28.75 17.8445 28.574 17.7125 28.346C17.5845 28.118 17.5205 27.848 17.5205 27.536C17.5205 27.232 17.5825 26.966 17.7065 26.738C17.8345 26.51 18.0085 26.332 18.2285 26.204C18.4525 26.072 18.7065 26.006 18.9905 26.006C19.1985 26.006 19.3845 26.04 19.5485 26.108C19.7165 26.176 19.8585 26.274 19.9745 26.402C20.0945 26.53 20.1845 26.686 20.2445 26.87C20.3085 27.05 20.3405 27.254 20.3405 27.482C20.3405 27.554 20.3145 27.61 20.2625 27.65C20.2145 27.686 20.1445 27.704 20.0525 27.704H18.1265V27.272H19.8125L19.7165 27.362C19.7165 27.178 19.6885 27.024 19.6325 26.9C19.5805 26.776 19.5025 26.682 19.3985 26.618C19.2985 26.55 19.1725 26.516 19.0205 26.516C18.8525 26.516 18.7085 26.556 18.5885 26.636C18.4725 26.712 18.3825 26.822 18.3185 26.966C18.2585 27.106 18.2285 27.274 18.2285 27.47V27.512C18.2285 27.84 18.3045 28.086 18.4565 28.25C18.6125 28.41 18.8405 28.49 19.1405 28.49C19.2445 28.49 19.3605 28.478 19.4885 28.454C19.6205 28.426 19.7445 28.38 19.8605 28.316C19.9445 28.268 20.0185 28.248 20.0825 28.256C20.1465 28.26 20.1965 28.282 20.2325 28.322C20.2725 28.362 20.2965 28.412 20.3045 28.472C20.3125 28.528 20.3005 28.586 20.2685 28.646C20.2405 28.706 20.1905 28.758 20.1185 28.802C19.9785 28.89 19.8165 28.956 19.6325 29C19.4525 29.04 19.2845 29.06 19.1285 29.06ZM21.8885 29.06C21.7165 29.06 21.5345 29.042 21.3425 29.006C21.1505 28.97 20.9785 28.908 20.8265 28.82C20.7625 28.78 20.7165 28.734 20.6885 28.682C20.6645 28.626 20.6545 28.572 20.6585 28.52C20.6665 28.464 20.6865 28.416 20.7185 28.376C20.7545 28.336 20.7985 28.31 20.8505 28.298C20.9065 28.286 20.9665 28.296 21.0305 28.328C21.1905 28.404 21.3405 28.458 21.4805 28.49C21.6205 28.518 21.7585 28.532 21.8945 28.532C22.0865 28.532 22.2285 28.5 22.3205 28.436C22.4165 28.368 22.4645 28.28 22.4645 28.172C22.4645 28.08 22.4325 28.01 22.3685 27.962C22.3085 27.91 22.2165 27.872 22.0925 27.848L21.4925 27.734C21.2445 27.686 21.0545 27.596 20.9225 27.464C20.7945 27.328 20.7305 27.154 20.7305 26.942C20.7305 26.75 20.7825 26.584 20.8865 26.444C20.9945 26.304 21.1425 26.196 21.3305 26.12C21.5185 26.044 21.7345 26.006 21.9785 26.006C22.1545 26.006 22.3185 26.026 22.4705 26.066C22.6265 26.102 22.7765 26.16 22.9205 26.24C22.9805 26.272 23.0205 26.314 23.0405 26.366C23.0645 26.418 23.0705 26.472 23.0585 26.528C23.0465 26.58 23.0225 26.628 22.9865 26.672C22.9505 26.712 22.9045 26.738 22.8485 26.75C22.7965 26.758 22.7365 26.746 22.6685 26.714C22.5445 26.65 22.4245 26.604 22.3085 26.576C22.1965 26.548 22.0885 26.534 21.9845 26.534C21.7885 26.534 21.6425 26.568 21.5465 26.636C21.4545 26.704 21.4085 26.794 21.4085 26.906C21.4085 26.99 21.4365 27.06 21.4925 27.116C21.5485 27.172 21.6345 27.21 21.7505 27.23L22.3505 27.344C22.6105 27.392 22.8065 27.48 22.9385 27.608C23.0745 27.736 23.1425 27.908 23.1425 28.124C23.1425 28.416 23.0285 28.646 22.8005 28.814C22.5725 28.978 22.2685 29.06 21.8885 29.06ZM23.9961 29.048C23.8761 29.048 23.7841 29.016 23.7201 28.952C23.6561 28.884 23.6241 28.788 23.6241 28.664V25.1C23.6241 24.976 23.6561 24.882 23.7201 24.818C23.7841 24.754 23.8761 24.722 23.9961 24.722C24.1161 24.722 24.2081 24.754 24.2721 24.818C24.3401 24.882 24.3741 24.976 24.3741 25.1V26.654H24.2901C24.3781 26.442 24.5141 26.282 24.6981 26.174C24.8861 26.062 25.0981 26.006 25.3341 26.006C25.5701 26.006 25.7641 26.05 25.9161 26.138C26.0681 26.226 26.1821 26.36 26.2581 26.54C26.3341 26.716 26.3721 26.94 26.3721 27.212V28.664C26.3721 28.788 26.3401 28.884 26.2761 28.952C26.2121 29.016 26.1201 29.048 26.0001 29.048C25.8801 29.048 25.7861 29.016 25.7181 28.952C25.6541 28.884 25.6221 28.788 25.6221 28.664V27.248C25.6221 27.02 25.5781 26.854 25.4901 26.75C25.4061 26.646 25.2741 26.594 25.0941 26.594C24.8741 26.594 24.6981 26.664 24.5661 26.804C24.4381 26.94 24.3741 27.122 24.3741 27.35V28.664C24.3741 28.92 24.2481 29.048 23.9961 29.048ZM28.9788 29.048C28.8548 29.048 28.7588 29.014 28.6908 28.946C28.6268 28.874 28.5948 28.776 28.5948 28.652V25.16C28.5948 25.032 28.6288 24.936 28.6968 24.872C28.7648 24.804 28.8608 24.77 28.9848 24.77H30.4308C30.8948 24.77 31.2528 24.886 31.5048 25.118C31.7568 25.35 31.8828 25.674 31.8828 26.09C31.8828 26.506 31.7568 26.832 31.5048 27.068C31.2528 27.3 30.8948 27.416 30.4308 27.416H29.3628V28.652C29.3628 28.776 29.3308 28.874 29.2668 28.946C29.2028 29.014 29.1068 29.048 28.9788 29.048ZM29.3628 26.81H30.3108C30.5828 26.81 30.7888 26.75 30.9288 26.63C31.0688 26.506 31.1388 26.326 31.1388 26.09C31.1388 25.854 31.0688 25.676 30.9288 25.556C30.7888 25.436 30.5828 25.376 30.3108 25.376H29.3628V26.81ZM32.6423 29.048C32.5183 29.048 32.4223 29.016 32.3543 28.952C32.2903 28.884 32.2583 28.788 32.2583 28.664V26.396C32.2583 26.272 32.2903 26.178 32.3543 26.114C32.4183 26.05 32.5083 26.018 32.6243 26.018C32.7403 26.018 32.8303 26.05 32.8943 26.114C32.9583 26.178 32.9903 26.272 32.9903 26.396V26.774H32.9303C32.9863 26.534 33.0963 26.352 33.2603 26.228C33.4243 26.104 33.6423 26.03 33.9143 26.006C33.9983 25.998 34.0643 26.02 34.1123 26.072C34.1643 26.12 34.1943 26.196 34.2023 26.3C34.2103 26.4 34.1863 26.482 34.1303 26.546C34.0783 26.606 33.9983 26.642 33.8903 26.654L33.7583 26.666C33.5143 26.69 33.3303 26.766 33.2063 26.894C33.0823 27.018 33.0203 27.194 33.0203 27.422V28.664C33.0203 28.788 32.9883 28.884 32.9243 28.952C32.8603 29.016 32.7663 29.048 32.6423 29.048ZM35.779 29.06C35.475 29.06 35.211 28.998 34.987 28.874C34.763 28.75 34.589 28.574 34.465 28.346C34.341 28.114 34.279 27.842 34.279 27.53C34.279 27.294 34.313 27.084 34.381 26.9C34.453 26.712 34.555 26.552 34.687 26.42C34.819 26.284 34.977 26.182 35.161 26.114C35.345 26.042 35.551 26.006 35.779 26.006C36.083 26.006 36.347 26.068 36.571 26.192C36.795 26.316 36.969 26.492 37.093 26.72C37.217 26.948 37.279 27.218 37.279 27.53C37.279 27.766 37.243 27.978 37.171 28.166C37.103 28.354 37.003 28.516 36.871 28.652C36.739 28.784 36.581 28.886 36.397 28.958C36.213 29.026 36.007 29.06 35.779 29.06ZM35.779 28.49C35.927 28.49 36.057 28.454 36.169 28.382C36.281 28.31 36.367 28.204 36.427 28.064C36.491 27.92 36.523 27.742 36.523 27.53C36.523 27.21 36.455 26.972 36.319 26.816C36.183 26.656 36.003 26.576 35.779 26.576C35.631 26.576 35.501 26.612 35.389 26.684C35.277 26.752 35.189 26.858 35.125 27.002C35.065 27.142 35.035 27.318 35.035 27.53C35.035 27.846 35.103 28.086 35.239 28.25C35.375 28.41 35.555 28.49 35.779 28.49ZM38.906 29.06C38.65 29.06 38.424 28.998 38.228 28.874C38.036 28.75 37.886 28.574 37.778 28.346C37.67 28.114 37.616 27.842 37.616 27.53C37.616 27.214 37.67 26.944 37.778 26.72C37.886 26.492 38.036 26.316 38.228 26.192C38.424 26.068 38.65 26.006 38.906 26.006C39.15 26.006 39.362 26.066 39.542 26.186C39.726 26.306 39.85 26.464 39.914 26.66H39.848V25.1C39.848 24.976 39.88 24.882 39.944 24.818C40.008 24.754 40.1 24.722 40.22 24.722C40.34 24.722 40.432 24.754 40.496 24.818C40.564 24.882 40.598 24.976 40.598 25.1V28.664C40.598 28.788 40.566 28.884 40.502 28.952C40.438 29.016 40.346 29.048 40.226 29.048C40.106 29.048 40.014 29.016 39.95 28.952C39.886 28.884 39.854 28.788 39.854 28.664V28.196L39.92 28.376C39.86 28.584 39.738 28.75 39.554 28.874C39.37 28.998 39.154 29.06 38.906 29.06ZM39.116 28.49C39.264 28.49 39.394 28.454 39.506 28.382C39.618 28.31 39.704 28.204 39.764 28.064C39.828 27.92 39.86 27.742 39.86 27.53C39.86 27.21 39.792 26.972 39.656 26.816C39.52 26.656 39.34 26.576 39.116 26.576C38.968 26.576 38.838 26.612 38.726 26.684C38.614 26.752 38.526 26.858 38.462 27.002C38.402 27.142 38.372 27.318 38.372 27.53C38.372 27.846 38.44 28.086 38.576 28.25C38.712 28.41 38.892 28.49 39.116 28.49ZM42.3177 29.06C42.0737 29.06 41.8717 29.016 41.7117 28.928C41.5517 28.836 41.4317 28.7 41.3517 28.52C41.2757 28.34 41.2377 28.116 41.2377 27.848V26.396C41.2377 26.268 41.2697 26.174 41.3337 26.114C41.3977 26.05 41.4897 26.018 41.6097 26.018C41.7297 26.018 41.8217 26.05 41.8857 26.114C41.9537 26.174 41.9877 26.268 41.9877 26.396V27.86C41.9877 28.068 42.0297 28.222 42.1137 28.322C42.1977 28.422 42.3317 28.472 42.5157 28.472C42.7157 28.472 42.8797 28.404 43.0077 28.268C43.1357 28.128 43.1997 27.944 43.1997 27.716V26.396C43.1997 26.268 43.2317 26.174 43.2957 26.114C43.3597 26.05 43.4517 26.018 43.5717 26.018C43.6917 26.018 43.7837 26.05 43.8477 26.114C43.9157 26.174 43.9497 26.268 43.9497 26.396V28.664C43.9497 28.92 43.8277 29.048 43.5837 29.048C43.4677 29.048 43.3777 29.016 43.3137 28.952C43.2497 28.884 43.2177 28.788 43.2177 28.664V28.208L43.3017 28.388C43.2177 28.604 43.0897 28.77 42.9177 28.886C42.7497 29.002 42.5497 29.06 42.3177 29.06ZM45.9663 29.06C45.6583 29.06 45.3903 28.998 45.1623 28.874C44.9343 28.746 44.7583 28.566 44.6343 28.334C44.5103 28.102 44.4483 27.83 44.4483 27.518C44.4483 27.282 44.4823 27.072 44.5503 26.888C44.6223 26.7 44.7243 26.542 44.8563 26.414C44.9883 26.282 45.1483 26.182 45.3363 26.114C45.5243 26.042 45.7343 26.006 45.9663 26.006C46.0983 26.006 46.2403 26.024 46.3923 26.06C46.5483 26.096 46.6943 26.156 46.8303 26.24C46.8943 26.28 46.9363 26.328 46.9563 26.384C46.9763 26.44 46.9803 26.498 46.9683 26.558C46.9563 26.614 46.9303 26.664 46.8903 26.708C46.8543 26.748 46.8083 26.774 46.7523 26.786C46.6963 26.794 46.6343 26.78 46.5663 26.744C46.4783 26.692 46.3883 26.654 46.2963 26.63C46.2043 26.602 46.1163 26.588 46.0323 26.588C45.9003 26.588 45.7843 26.61 45.6843 26.654C45.5843 26.694 45.4983 26.754 45.4263 26.834C45.3583 26.91 45.3063 27.006 45.2703 27.122C45.2343 27.238 45.2163 27.372 45.2163 27.524C45.2163 27.82 45.2863 28.054 45.4263 28.226C45.5703 28.394 45.7723 28.478 46.0323 28.478C46.1163 28.478 46.2023 28.466 46.2903 28.442C46.3823 28.418 46.4743 28.38 46.5663 28.328C46.6343 28.292 46.6943 28.28 46.7463 28.292C46.8023 28.304 46.8483 28.332 46.8843 28.376C46.9203 28.416 46.9423 28.466 46.9503 28.526C46.9583 28.582 46.9503 28.638 46.9263 28.694C46.9063 28.75 46.8663 28.796 46.8063 28.832C46.6743 28.912 46.5343 28.97 46.3863 29.006C46.2383 29.042 46.0983 29.06 45.9663 29.06ZM48.7078 29.06C48.3758 29.06 48.0898 28.998 47.8498 28.874C47.6098 28.75 47.4238 28.574 47.2918 28.346C47.1638 28.118 47.0998 27.848 47.0998 27.536C47.0998 27.232 47.1618 26.966 47.2858 26.738C47.4138 26.51 47.5878 26.332 47.8078 26.204C48.0318 26.072 48.2858 26.006 48.5698 26.006C48.7778 26.006 48.9638 26.04 49.1278 26.108C49.2958 26.176 49.4378 26.274 49.5538 26.402C49.6738 26.53 49.7638 26.686 49.8238 26.87C49.8878 27.05 49.9198 27.254 49.9198 27.482C49.9198 27.554 49.8938 27.61 49.8418 27.65C49.7938 27.686 49.7238 27.704 49.6318 27.704H47.7058V27.272H49.3918L49.2958 27.362C49.2958 27.178 49.2678 27.024 49.2118 26.9C49.1598 26.776 49.0818 26.682 48.9778 26.618C48.8778 26.55 48.7518 26.516 48.5998 26.516C48.4318 26.516 48.2878 26.556 48.1678 26.636C48.0518 26.712 47.9618 26.822 47.8978 26.966C47.8378 27.106 47.8078 27.274 47.8078 27.47V27.512C47.8078 27.84 47.8838 28.086 48.0358 28.25C48.1918 28.41 48.4198 28.49 48.7198 28.49C48.8238 28.49 48.9398 28.478 49.0678 28.454C49.1998 28.426 49.3238 28.38 49.4398 28.316C49.5238 28.268 49.5978 28.248 49.6618 28.256C49.7258 28.26 49.7758 28.282 49.8118 28.322C49.8518 28.362 49.8758 28.412 49.8838 28.472C49.8918 28.528 49.8798 28.586 49.8478 28.646C49.8198 28.706 49.7698 28.758 49.6978 28.802C49.5578 28.89 49.3958 28.956 49.2118 29C49.0318 29.04 48.8638 29.06 48.7078 29.06Z" fill="#156319"/>
</svg>
