<svg width="64" height="45" viewBox="0 0 64 45" fill="none" xmlns="http://www.w3.org/2000/svg">
<path d="M32.7176 42.9163C44.9437 42.6949 55.683 36.1589 58.3171 26.8635C60.0798 26.035 61.4659 24.3557 61.4221 22.1766C61.3783 19.9975 59.9257 18.3696 58.1309 17.6055C55.1251 8.41238 44.1311 2.27012 31.905 2.49156C19.8204 2.71045 9.19306 9.09654 6.40186 18.2181C4.18276 18.8541 2.31507 20.6921 2.36641 23.2462C2.41775 25.8003 4.35791 27.5694 6.60092 28.1245C9.75657 37.1385 20.6329 43.1352 32.7176 42.9163Z" fill="#FFD12F" stroke="#1C1B1F" stroke-width="4"/>
<path d="M22.7181 34C22.0099 34 21.4159 33.8386 20.9361 33.5159C20.4563 33.1701 20.1593 32.7091 20.0451 32.1328C19.9309 31.5334 20.0337 30.8649 20.3535 30.1272L28.8867 11.5934C29.2979 10.6943 29.8005 10.0373 30.3946 9.62241C31.0114 9.20747 31.7082 9 32.485 9C33.2618 9 33.9358 9.20747 34.5069 9.62241C35.1009 10.0373 35.615 10.6943 36.0491 11.5934L44.5822 30.1272C44.9478 30.8649 45.0734 31.5334 44.9592 32.1328C44.8678 32.7321 44.5822 33.1932 44.1025 33.5159C43.6455 33.8386 43.0744 34 42.389 34C41.4751 34 40.7669 33.7925 40.2642 33.3776C39.7845 32.9627 39.3504 32.2941 38.962 31.3721L37.1114 26.9806L39.5103 28.7441H25.3912L27.8243 26.9806L25.9738 31.3721C25.5625 32.2941 25.1399 32.9627 24.7058 33.3776C24.2717 33.7925 23.6091 34 22.7181 34ZM32.4165 15.9502L28.4412 25.5284L27.4816 23.8686H37.4541L36.4946 25.5284L32.485 15.9502H32.4165Z" fill="#1C1B1F"/>
<path d="M54.2096 21.2818C54.1863 20.486 55.0568 19.9834 55.7343 20.4015L57.1635 21.2834C57.8075 21.6808 57.7937 22.622 57.1383 23.0004L55.7583 23.7971C55.1029 24.1755 54.2809 23.7169 54.2588 22.9604L54.2096 21.2818Z" fill="#1C1B1F"/>
<ellipse cx="17.7127" cy="14.1483" rx="4" ry="2.5" transform="rotate(-29.5684 17.7127 14.1483)" fill="white"/>
</svg>
