<svg width="48" height="34" viewBox="0 0 48 34" fill="none" xmlns="http://www.w3.org/2000/svg">
<path d="M47.0769 17C47.0769 20.2692 37.9231 34 23.5385 34C9.15385 34 0 25 0 17C0 9 9.15385 0 23.5385 0C37.5523 0 47.0769 13.7308 47.0769 17Z" fill="#FFD12F"/>
<path fill-rule="evenodd" clip-rule="evenodd" d="M43.6419 17.0112C43.6156 17.0969 43.5727 17.2234 43.5035 17.3943C43.313 17.8653 42.9957 18.4961 42.5321 19.2441C41.6062 20.7376 40.2014 22.5301 38.3732 24.2486C34.6977 27.7037 29.6049 30.6 23.5385 30.6C10.264 30.6 3.4 22.4372 3.4 17C3.4 11.5628 10.264 3.4 23.5385 3.4C29.4055 3.4 34.5026 6.28311 38.2482 9.76443C40.1057 11.4909 41.5473 13.291 42.5014 14.7901C42.9794 15.5411 43.307 16.1726 43.5035 16.6425C43.5719 16.8063 43.6151 16.928 43.6419 17.0112ZM23.5385 34C37.9231 34 47.0769 20.2692 47.0769 17C47.0769 13.7308 37.5523 0 23.5385 0C9.15385 0 0 9 0 17C0 25 9.15385 34 23.5385 34Z" fill="black"/>
<path d="M43.5178 19.9796C45.7808 20.8406 40.84 25.1729 39.0003 25C38.3407 24.938 39.5778 22.0016 39.7548 20.1184C39.9318 18.2352 39.2555 16.6185 40.2549 16.1184C41.2552 15.6184 41.2548 19.1185 43.5178 19.9796Z" fill="black"/>
<path d="M15.2098 26.154C14.6541 26.154 14.1881 26.0273 13.8116 25.7741C13.4352 25.5028 13.2022 25.1411 13.1125 24.6889C13.0229 24.2186 13.1036 23.6941 13.3545 23.1153L20.0498 8.57336C20.3724 7.86797 20.7668 7.35249 21.2329 7.02692C21.7169 6.70136 22.2636 6.53857 22.8731 6.53857C23.4826 6.53857 24.0114 6.70136 24.4595 7.02692C24.9256 7.35249 25.3289 7.86797 25.6695 8.57336L32.3647 23.1153C32.6516 23.6941 32.7502 24.2186 32.6605 24.6889C32.5888 25.1592 32.3647 25.5209 31.9883 25.7741C31.6298 26.0273 31.1817 26.154 30.6439 26.154C29.9269 26.154 29.3712 25.9912 28.9768 25.6656C28.6003 25.34 28.2598 24.8155 27.955 24.092L26.503 20.6465L28.3852 22.0301H17.3071L19.2162 20.6465L17.7643 24.092C17.4416 24.8155 17.11 25.34 16.7694 25.6656C16.4288 25.9912 15.9089 26.154 15.2098 26.154ZM22.8193 11.9918L19.7002 19.507L18.9473 18.2047H26.7719L26.019 19.507L22.8731 11.9918H22.8193Z" fill="black"/>
<ellipse cx="12.4051" cy="10.2946" rx="3.66993" ry="2.44662" transform="rotate(-30.8002 12.4051 10.2946)" fill="white"/>
</svg>
